<?xml version="1.0" standalone="no"?>
<svg viewBox="0 0 200 200" xmlns="http://www.w3.org/2000/svg">
  <path fill="#FF0066" d="M25.8,-48.8C30.7,-41.9,29.9,-29.4,33.3,-20.3C36.7,-11.2,44.2,-5.6,46,1C47.8,7.7,43.9,15.4,38.4,20.8C32.9,26.2,25.8,29.3,19.1,33.3C12.5,37.3,6.2,42.2,-3.5,48.2C-13.1,54.2,-26.3,61.2,-36.9,59.5C-47.6,57.8,-55.7,47.4,-59.2,36C-62.7,24.6,-61.4,12.3,-62.1,-0.4C-62.8,-13.1,-65.4,-26.2,-60,-34.3C-54.7,-42.4,-41.4,-45.6,-30.1,-48.7C-18.8,-51.8,-9.4,-54.9,0.5,-55.8C10.5,-56.8,21,-55.6,25.8,-48.8Z" transform="translate(100 100)" />
</svg>
